<svg width="185" height="201" viewBox="0 0 185 201" fill="none" xmlns="http://www.w3.org/2000/svg">
<mask id="path-1-outside-1_64_178" maskUnits="userSpaceOnUse" x="-53.9284" y="-33.3921" width="291.444" height="268.022" fill="black">
<rect fill="white" x="-53.9284" y="-33.3921" width="291.444" height="268.022"/>
<path d="M3.13716 119.276L2.30794 13.4842C2.29837 12.2632 2.6844 11.0748 3.40855 10.096L7.15814 5.02807C7.68526 4.31561 8.73592 4.26287 9.34256 4.91841L180.914 190.318L176.215 196.668C175.034 198.265 172.892 198.82 171.065 198.003L6.52708 124.443C4.48152 123.528 3.15464 121.506 3.13716 119.276Z"/>
<path d="M7.32399 113.618L6.10191 8.20505C6.05416 4.08575 10.2885 1.32677 14.0679 3.01461L173.107 74.039C177.151 75.8447 179.796 79.8174 179.889 84.224L182.059 186.796C182.147 190.942 177.887 193.742 174.085 192.037L10.7075 118.761C8.67231 117.848 7.34973 115.838 7.32399 113.618Z"/>
<path d="M17.5875 15.6959L18.8084 14.9465C20.3918 13.9745 22.3587 13.8441 24.0703 14.5974L161.84 75.2378C163.88 76.1354 165.615 77.608 166.831 79.4734L169.821 84.0604C170.986 85.8475 171.626 87.9214 171.669 90.0455L173.064 159.034L16.3077 89.6167L14.9124 20.5985C14.8721 18.6015 15.8884 16.7388 17.5875 15.6959Z"/>
<path d="M41.5276 66.7944C40.9438 58.4275 46.7161 54.4052 54.4203 57.8105L132 92.1003C139.704 95.5055 146.423 105.049 147.007 113.416C147.591 121.783 141.818 125.805 134.114 122.4L56.5344 88.1098C48.8302 84.7045 42.1114 75.1613 41.5276 66.7944Z"/>
<path d="M141.316 113.583C139.262 117.885 133.422 118.284 128.272 114.474C123.122 110.664 120.612 104.087 122.666 99.7845C124.72 95.482 130.561 95.083 135.711 98.8933C140.861 102.704 143.37 109.28 141.316 113.583Z"/>
<path d="M68.6903 80.9336C66.6363 85.2361 60.7962 85.6351 55.6462 81.8248C50.4962 78.0145 47.9864 71.4378 50.0404 67.1353C52.0945 62.8328 57.9345 62.4339 63.0846 66.2442C68.2346 70.0545 70.7444 76.6312 68.6903 80.9336Z"/>
<path d="M55.5289 131.812C54.673 133.605 52.2397 133.771 50.0938 132.184C47.948 130.596 46.9022 127.856 47.7581 126.063C48.6139 124.27 51.0473 124.104 53.1931 125.692C55.339 127.279 56.3847 130.02 55.5289 131.812Z"/>
<path d="M73.4648 136.297C72.609 138.09 70.1756 138.256 68.0298 136.669C65.8839 135.081 64.8382 132.341 65.694 130.548C66.5499 128.755 68.9832 128.589 71.1291 130.177C73.2749 131.764 74.3207 134.505 73.4648 136.297Z"/>
<path d="M122.537 158.548C121.681 160.341 119.248 160.507 117.102 158.919C114.956 157.332 113.91 154.591 114.766 152.799C115.622 151.006 118.055 150.84 120.201 152.427C122.347 154.015 123.393 156.755 122.537 158.548Z"/>
<path d="M141.386 168.98C140.53 170.773 138.097 170.939 135.951 169.351C133.805 167.764 132.76 165.023 133.616 163.231C134.471 161.438 136.905 161.272 139.051 162.859C141.196 164.447 142.242 167.187 141.386 168.98Z"/>
<path d="M76.2197 60.5515L76.1708 46.1292L78.9732 47.3679L78.9947 53.7269L79.1695 53.8041L83.9178 49.5534L87.2768 51.038L82.38 55.3216L87.384 65.4861L84.0315 64.0043L80.3805 56.47L79.0082 57.6916L79.0221 61.7902L76.2197 60.5515Z"/>
<path d="M95.834 58.9619C95.7803 58.3709 95.5566 57.8314 95.1629 57.3433C94.7692 56.8552 94.2358 56.4624 93.5627 56.1649C93.1053 55.9627 92.7194 55.8625 92.4049 55.8641C92.0904 55.861 91.8494 55.9444 91.682 56.1141C91.5188 56.2858 91.4378 56.5265 91.4389 56.8364C91.4311 57.0908 91.4815 57.3381 91.59 57.5782C91.7028 57.8203 91.8566 58.0547 92.0512 58.2813C92.2458 58.5033 92.4706 58.7222 92.7255 58.938C92.9804 59.1491 93.2525 59.3537 93.5419 59.5519L94.7338 60.3881C95.3124 60.7845 95.8438 61.2069 96.3278 61.6552C96.8119 62.1036 97.2314 62.5773 97.5863 63.0764C97.9413 63.5755 98.2167 64.1003 98.4124 64.6509C98.6124 65.2034 98.7157 65.7811 98.722 66.3839C98.7207 67.2646 98.5162 67.9383 98.1085 68.405C97.7051 68.869 97.12 69.1096 96.3532 69.1269C95.5907 69.1415 94.6701 68.9104 93.5914 68.4336C92.5213 67.9607 91.5888 67.3703 90.7936 66.6626C90.0028 65.9568 89.384 65.156 88.9373 64.26C88.4948 63.3613 88.261 62.3884 88.2359 61.3413L90.9477 62.5399C90.9795 63.0368 91.1082 63.4968 91.3336 63.9199C91.5634 64.3402 91.8684 64.7165 92.2487 65.0486C92.6332 65.378 93.0671 65.6494 93.5504 65.863C94.025 66.0728 94.4368 66.1798 94.7858 66.184C95.139 66.1902 95.4123 66.1024 95.6056 65.9206C95.7988 65.7388 95.8949 65.4742 95.8937 65.1268C95.8926 64.8029 95.8032 64.4915 95.6256 64.1926C95.4522 63.8957 95.197 63.5954 94.8599 63.2917C94.5272 62.9899 94.119 62.6689 93.6353 62.3285L92.1907 61.2962C91.0722 60.5065 90.1882 59.6541 89.5389 58.739C88.8896 57.8238 88.5653 56.8343 88.566 55.7705C88.5587 54.8954 88.7697 54.2269 89.1989 53.765C89.6325 53.3051 90.2283 53.0598 90.9865 53.0293C91.7446 52.9987 92.607 53.197 93.5735 53.6242C94.5572 54.059 95.4165 54.6216 96.1512 55.312C96.8903 56.0043 97.4658 56.7674 97.8779 57.6011C98.2901 58.4348 98.504 59.2841 98.5199 60.149L95.834 58.9619Z"/>
<path d="M100.621 71.3367L100.572 56.9144L109.503 60.8621L109.512 63.3761L103.383 60.6671L103.395 64.1037L109.064 66.6096L109.073 69.1236L103.403 66.6177L103.415 70.0613L109.57 72.7818L109.578 75.2958L100.621 71.3367Z"/>
<path d="M111.235 64.1378L111.227 61.6237L122.113 66.4353L122.121 68.9493L118.063 67.1557L118.104 79.064L115.334 77.8396L115.293 65.9314L111.235 64.1378Z"/>
</mask>
<path d="M3.13716 119.276L2.30794 13.4842C2.29837 12.2632 2.6844 11.0748 3.40855 10.096L7.15814 5.02807C7.68526 4.31561 8.73592 4.26287 9.34256 4.91841L180.914 190.318L176.215 196.668C175.034 198.265 172.892 198.82 171.065 198.003L6.52708 124.443C4.48152 123.528 3.15464 121.506 3.13716 119.276Z" fill="#BCAD88"/>
<path d="M7.32399 113.618L6.10191 8.20505C6.05416 4.08575 10.2885 1.32677 14.0679 3.01461L173.107 74.039C177.151 75.8447 179.796 79.8174 179.889 84.224L182.059 186.796C182.147 190.942 177.887 193.742 174.085 192.037L10.7075 118.761C8.67231 117.848 7.34973 115.838 7.32399 113.618Z" fill="#F2EAD7"/>
<path d="M17.5875 15.6959L18.8084 14.9465C20.3918 13.9745 22.3587 13.8441 24.0703 14.5974L161.84 75.2378C163.88 76.1354 165.615 77.608 166.831 79.4734L169.821 84.0604C170.986 85.8475 171.626 87.9214 171.669 90.0455L173.064 159.034L16.3077 89.6167L14.9124 20.5985C14.8721 18.6015 15.8884 16.7388 17.5875 15.6959Z" fill="#FF5959"/>
<path d="M41.5276 66.7944C40.9438 58.4275 46.7161 54.4052 54.4203 57.8105L132 92.1003C139.704 95.5055 146.423 105.049 147.007 113.416C147.591 121.783 141.818 125.805 134.114 122.4L56.5344 88.1098C48.8302 84.7045 42.1114 75.1613 41.5276 66.7944Z" fill="#F2EAD7"/>
<path d="M141.316 113.583C139.262 117.885 133.422 118.284 128.272 114.474C123.122 110.664 120.612 104.087 122.666 99.7845C124.72 95.482 130.561 95.083 135.711 98.8933C140.861 102.704 143.37 109.28 141.316 113.583Z" fill="#640000"/>
<path d="M68.6903 80.9336C66.6363 85.2361 60.7962 85.6351 55.6462 81.8248C50.4962 78.0145 47.9864 71.4378 50.0404 67.1353C52.0945 62.8328 57.9345 62.4339 63.0846 66.2442C68.2346 70.0545 70.7444 76.6312 68.6903 80.9336Z" fill="#640000"/>
<path d="M55.5289 131.812C54.673 133.605 52.2397 133.771 50.0938 132.184C47.948 130.596 46.9022 127.856 47.7581 126.063C48.6139 124.27 51.0473 124.104 53.1931 125.692C55.339 127.279 56.3847 130.02 55.5289 131.812Z" fill="#640000"/>
<path d="M73.4648 136.297C72.609 138.09 70.1756 138.256 68.0298 136.669C65.8839 135.081 64.8382 132.341 65.694 130.548C66.5499 128.755 68.9832 128.589 71.1291 130.177C73.2749 131.764 74.3207 134.505 73.4648 136.297Z" fill="#640000"/>
<path d="M122.537 158.548C121.681 160.341 119.248 160.507 117.102 158.919C114.956 157.332 113.91 154.591 114.766 152.799C115.622 151.006 118.055 150.84 120.201 152.427C122.347 154.015 123.393 156.755 122.537 158.548Z" fill="#640000"/>
<path d="M141.386 168.98C140.53 170.773 138.097 170.939 135.951 169.351C133.805 167.764 132.76 165.023 133.616 163.231C134.471 161.438 136.905 161.272 139.051 162.859C141.196 164.447 142.242 167.187 141.386 168.98Z" fill="#640000"/>
<path d="M76.2197 60.5515L76.1708 46.1292L78.9732 47.3679L78.9947 53.7269L79.1695 53.8041L83.9178 49.5534L87.2768 51.038L82.38 55.3216L87.384 65.4861L84.0315 64.0043L80.3805 56.47L79.0082 57.6916L79.0221 61.7902L76.2197 60.5515Z" fill="#640000"/>
<path d="M95.834 58.9619C95.7803 58.3709 95.5566 57.8314 95.1629 57.3433C94.7692 56.8552 94.2358 56.4624 93.5627 56.1649C93.1053 55.9627 92.7194 55.8625 92.4049 55.8641C92.0904 55.861 91.8494 55.9444 91.682 56.1141C91.5188 56.2858 91.4378 56.5265 91.4389 56.8364C91.4311 57.0908 91.4815 57.3381 91.59 57.5782C91.7028 57.8203 91.8566 58.0547 92.0512 58.2813C92.2458 58.5033 92.4706 58.7222 92.7255 58.938C92.9804 59.1491 93.2525 59.3537 93.5419 59.5519L94.7338 60.3881C95.3124 60.7845 95.8438 61.2069 96.3278 61.6552C96.8119 62.1036 97.2314 62.5773 97.5863 63.0764C97.9413 63.5755 98.2167 64.1003 98.4124 64.6509C98.6124 65.2034 98.7157 65.7811 98.722 66.3839C98.7207 67.2646 98.5162 67.9383 98.1085 68.405C97.7051 68.869 97.12 69.1096 96.3532 69.1269C95.5907 69.1415 94.6701 68.9104 93.5914 68.4336C92.5213 67.9607 91.5888 67.3703 90.7936 66.6626C90.0028 65.9568 89.384 65.156 88.9373 64.26C88.4948 63.3613 88.261 62.3884 88.2359 61.3413L90.9477 62.5399C90.9795 63.0368 91.1082 63.4968 91.3336 63.9199C91.5634 64.3402 91.8684 64.7165 92.2487 65.0486C92.6332 65.378 93.0671 65.6494 93.5504 65.863C94.025 66.0728 94.4368 66.1798 94.7858 66.184C95.139 66.1902 95.4123 66.1024 95.6056 65.9206C95.7988 65.7388 95.8949 65.4742 95.8937 65.1268C95.8926 64.8029 95.8032 64.4915 95.6256 64.1926C95.4522 63.8957 95.197 63.5954 94.8599 63.2917C94.5272 62.9899 94.119 62.6689 93.6353 62.3285L92.1907 61.2962C91.0722 60.5065 90.1882 59.6541 89.5389 58.739C88.8896 57.8238 88.5653 56.8343 88.566 55.7705C88.5587 54.8954 88.7697 54.2269 89.1989 53.765C89.6325 53.3051 90.2283 53.0598 90.9865 53.0293C91.7446 52.9987 92.607 53.197 93.5735 53.6242C94.5572 54.059 95.4165 54.6216 96.1512 55.312C96.8903 56.0043 97.4658 56.7674 97.8779 57.6011C98.2901 58.4348 98.504 59.2841 98.5199 60.149L95.834 58.9619Z" fill="#640000"/>
<path d="M100.621 71.3367L100.572 56.9144L109.503 60.8621L109.512 63.3761L103.383 60.6671L103.395 64.1037L109.064 66.6096L109.073 69.1236L103.403 66.6177L103.415 70.0613L109.57 72.7818L109.578 75.2958L100.621 71.3367Z" fill="#640000"/>
<path d="M111.235 64.1378L111.227 61.6237L122.113 66.4353L122.121 68.9493L118.063 67.1557L118.104 79.064L115.334 77.8396L115.293 65.9314L111.235 64.1378Z" fill="#640000"/>
<path d="M38.3357 110.39L39.2773 110.726L39.2773 110.726L38.3357 110.39ZM42.1381 108.768L42.5401 107.852L42.5401 107.852L42.1381 108.768ZM148.877 155.628L149.279 154.713L149.279 154.713L148.877 155.628ZM150.556 157.812L149.568 157.964L149.568 157.964L150.556 157.812ZM32.8439 128.724L39.2773 110.726L37.394 110.053L30.9606 128.051L32.8439 128.724ZM41.7361 109.684L148.475 156.544L149.279 154.713L42.5401 107.852L41.7361 109.684ZM149.568 157.964L153.441 183.175L155.418 182.871L151.545 157.66L149.568 157.964ZM148.475 156.544C149.06 156.801 149.472 157.339 149.568 157.964L151.545 157.66C151.344 156.356 150.488 155.244 149.279 154.713L148.475 156.544ZM39.2773 110.726C39.63 109.74 40.7529 109.252 41.7361 109.684L42.5401 107.852C40.5082 106.96 38.142 107.961 37.394 110.053L39.2773 110.726ZM2.30794 13.4842L4.30787 13.4685L2.30794 13.4842ZM3.13716 119.276L1.13722 119.291L1.13722 119.291L3.13716 119.276ZM6.52708 124.443L7.34336 122.617L7.34336 122.617L6.52708 124.443ZM171.065 198.003L171.881 196.177L171.881 196.177L171.065 198.003ZM180.914 190.318L182.521 191.508L183.507 190.176L182.381 188.96L180.914 190.318ZM9.34256 4.91841L10.8105 3.56L9.34256 4.91841ZM6.10191 8.20505L4.10205 8.22824L6.10191 8.20505ZM7.32399 113.618L5.32413 113.642L5.32413 113.642L7.32399 113.618ZM10.7075 118.761L9.88902 120.586L9.88902 120.586L10.7075 118.761ZM174.085 192.037L173.267 193.862L173.267 193.862L174.085 192.037ZM182.059 186.796L184.059 186.754L184.059 186.754L182.059 186.796ZM179.889 84.224L177.89 84.2663L177.89 84.2663L179.889 84.224ZM173.107 74.039L172.292 75.8651L173.107 74.039ZM14.0679 3.01461L14.8834 1.18844L14.8834 1.18843L14.0679 3.01461ZM18.8084 14.9465L17.7621 13.242L17.7621 13.242L18.8084 14.9465ZM17.5875 15.6959L18.6338 17.4004L18.6338 17.4004L17.5875 15.6959ZM14.9124 20.5985L12.9128 20.6389L14.9124 20.5985ZM16.3077 89.6167L14.3081 89.6571L14.3338 90.9299L15.4979 91.4454L16.3077 89.6167ZM173.064 159.034L172.254 160.863L175.127 162.135L175.063 158.993L173.064 159.034ZM171.669 90.0455L169.669 90.0859L169.669 90.0859L171.669 90.0455ZM169.821 84.0604L168.145 85.1526L168.145 85.1526L169.821 84.0604ZM166.831 79.4734L168.506 78.3812L168.506 78.3812L166.831 79.4734ZM161.84 75.2378L162.646 73.4073L162.646 73.4073L161.84 75.2378ZM24.0703 14.5974L23.2646 16.428L23.2646 16.428L24.0703 14.5974ZM56.5344 88.1098L55.7259 89.939L55.7259 89.939L56.5344 88.1098ZM134.114 122.4L134.923 120.57L134.923 120.57L134.114 122.4ZM132 92.1003L132.809 90.271L132.809 90.271L132 92.1003ZM54.4203 57.8105L53.6118 59.6398L53.6118 59.6398L54.4203 57.8105ZM76.2197 60.5515L74.2197 60.5583L74.2241 61.8561L75.4112 62.3808L76.2197 60.5515ZM76.1708 46.1292L76.9793 44.2999L74.1603 43.054L74.1708 46.136L76.1708 46.1292ZM78.9732 47.3679L80.9731 47.3611L80.9687 46.0632L79.7817 45.5386L78.9732 47.3679ZM78.9947 53.7269L76.9947 53.7337L76.9991 55.0315L78.1862 55.5562L78.9947 53.7269ZM79.1695 53.8041L78.3609 55.6334L79.5417 56.1553L80.5035 55.2943L79.1695 53.8041ZM83.9178 49.5534L84.7263 47.7241L83.5456 47.2022L82.5838 48.0632L83.9178 49.5534ZM87.2768 51.038L88.5936 52.5434L90.9554 50.4773L88.0853 49.2087L87.2768 51.038ZM82.38 55.3216L81.0631 53.8163L79.9074 54.8273L80.5856 56.205L82.38 55.3216ZM87.384 65.4861L86.5755 67.3153L91.6091 69.5402L89.1783 64.6027L87.384 65.4861ZM84.0315 64.0043L82.2316 64.8764L82.5517 65.5369L83.2229 65.8336L84.0315 64.0043ZM80.3805 56.47L82.1803 55.5978L81.0267 53.2171L79.0507 54.9761L80.3805 56.47ZM79.0082 57.6916L77.6784 56.1978L77.0051 56.7971L77.0082 57.6984L79.0082 57.6916ZM79.0221 61.7902L78.2136 63.6194L81.0325 64.8654L81.0221 61.7834L79.0221 61.7902ZM95.834 58.9619L93.8422 59.1429L93.9487 60.3152L95.0255 60.7911L95.834 58.9619ZM93.5627 56.1649L92.7542 57.9942L93.5627 56.1649ZM92.4049 55.8641L92.3854 57.864L92.4003 57.8642L92.4152 57.8641L92.4049 55.8641ZM91.682 56.1141L90.2581 54.7096L90.245 54.7229L90.2322 54.7364L91.682 56.1141ZM91.4389 56.8364L93.4379 56.8973L93.439 56.8635L93.4388 56.8296L91.4389 56.8364ZM91.59 57.5782L89.7674 58.4018L89.7723 58.4125L89.7773 58.4232L91.59 57.5782ZM92.0512 58.2813L90.5339 59.5843L90.5406 59.5921L90.5474 59.5999L92.0512 58.2813ZM92.7255 58.938L91.4333 60.4645L91.4415 60.4714L91.4498 60.4783L92.7255 58.938ZM93.5419 59.5519L94.6905 57.9147L94.6814 57.9083L94.6722 57.902L93.5419 59.5519ZM94.7338 60.3881L93.5851 62.0254L93.5943 62.0318L93.6035 62.0381L94.7338 60.3881ZM96.3278 61.6552L94.9688 63.1225L94.9688 63.1225L96.3278 61.6552ZM97.5863 63.0764L99.2162 61.9172L99.2162 61.9172L97.5863 63.0764ZM98.4124 64.6509L96.5279 65.3209L96.5319 65.3318L98.4124 64.6509ZM98.722 66.3839L100.722 66.3869L100.722 66.3749L100.722 66.3629L98.722 66.3839ZM98.1085 68.405L96.6023 67.0893L96.5993 67.0927L98.1085 68.405ZM96.3532 69.1269L96.3913 71.1266L96.3984 71.1264L96.3532 69.1269ZM93.5914 68.4336L94.3999 66.6043L93.5914 68.4336ZM90.7936 66.6626L89.4619 68.1548L89.4639 68.1566L90.7936 66.6626ZM88.9373 64.26L87.1429 65.1434L87.1475 65.1525L88.9373 64.26ZM88.2359 61.3413L89.0444 59.512L86.1609 58.2375L86.2365 61.3892L88.2359 61.3413ZM90.9477 62.5399L92.9436 62.412L92.866 61.2011L91.7562 60.7106L90.9477 62.5399ZM91.3336 63.9199L89.5686 64.8605L89.5736 64.8699L89.5787 64.8792L91.3336 63.9199ZM92.2487 65.0486L90.9329 66.5549L90.9403 66.5613L90.9477 66.5676L92.2487 65.0486ZM93.5504 65.863L94.3589 64.0337L93.5504 65.863ZM94.7858 66.184L94.8206 64.1843L94.8101 64.1842L94.7858 66.184ZM95.6056 65.9206L96.9759 67.3774L96.9759 67.3774L95.6056 65.9206ZM95.8937 65.1268L97.8937 65.12L95.8937 65.1268ZM95.6256 64.1926L93.8983 65.2009L93.9023 65.2078L93.9064 65.2146L95.6256 64.1926ZM94.8599 63.2917L93.5164 64.7732L93.5213 64.7776L94.8599 63.2917ZM93.6353 62.3285L92.4725 63.9558L92.4784 63.96L92.4843 63.9642L93.6353 62.3285ZM92.1907 61.2962L93.3535 59.669L93.3442 59.6624L92.1907 61.2962ZM89.5389 58.739L87.9078 59.8963L87.9078 59.8963L89.5389 58.739ZM88.566 55.7705L90.5659 55.7718L90.566 55.7629L90.5659 55.7539L88.566 55.7705ZM89.1989 53.765L87.7435 52.3931L87.7339 52.4035L89.1989 53.765ZM93.5735 53.6242L94.382 51.7949L93.5735 53.6242ZM96.1512 55.312L94.7817 56.7695L94.7839 56.7717L96.1512 55.312ZM97.8779 57.6011L96.085 58.4873L96.085 58.4873L97.8779 57.6011ZM98.5199 60.149L97.7114 61.9783L100.577 63.2449L100.52 60.1123L98.5199 60.149ZM100.621 71.3367L98.621 71.3435L98.6254 72.6413L99.8124 73.166L100.621 71.3367ZM100.572 56.9144L101.381 55.0852L98.5616 53.8392L98.5721 56.9212L100.572 56.9144ZM109.503 60.8621L111.503 60.8553L111.499 59.5575L110.312 59.0328L109.503 60.8621ZM109.512 63.3761L108.703 65.2054L111.522 66.4514L111.512 63.3693L109.512 63.3761ZM103.383 60.6671L104.192 58.8378L101.373 57.5919L101.383 60.6739L103.383 60.6671ZM103.395 64.1037L101.395 64.1105L101.399 65.4083L102.586 65.933L103.395 64.1037ZM109.064 66.6096L111.064 66.6028L111.06 65.305L109.873 64.7803L109.064 66.6096ZM109.073 69.1236L108.264 70.9529L111.083 72.1989L111.073 69.1168L109.073 69.1236ZM103.403 66.6177L104.212 64.7885L101.393 63.5425L101.403 66.6245L103.403 66.6177ZM103.415 70.0613L101.415 70.0681L101.419 71.3659L102.606 71.8906L103.415 70.0613ZM109.57 72.7818L111.57 72.775L111.565 71.4772L110.378 70.9525L109.57 72.7818ZM109.578 75.2958L108.77 77.1251L111.589 78.3711L111.578 75.289L109.578 75.2958ZM111.235 64.1378L109.235 64.1446L109.24 65.4424L110.427 65.9671L111.235 64.1378ZM111.227 61.6237L112.035 59.7944L109.216 58.5485L109.227 61.6305L111.227 61.6237ZM122.113 66.4353L124.113 66.4285L124.108 65.1307L122.921 64.606L122.113 66.4353ZM122.121 68.9493L121.313 70.7786L124.132 72.0246L124.121 68.9425L122.121 68.9493ZM118.063 67.1557L118.872 65.3264L116.053 64.0805L116.063 67.1625L118.063 67.1557ZM118.104 79.064L117.295 80.8933L120.114 82.1392L120.104 79.0572L118.104 79.064ZM115.334 77.8396L113.334 77.8464L113.338 79.1442L114.525 79.6689L115.334 77.8396ZM115.293 65.9314L117.293 65.9246L117.289 64.6268L116.102 64.1021L115.293 65.9314ZM0.307997 13.4999L1.13722 119.291L5.1371 119.26L4.30787 13.4685L0.307997 13.4999ZM5.71079 126.268L170.248 199.829L171.881 196.177L7.34336 122.617L5.71079 126.268ZM5.55035 3.83853L1.80076 8.9065L5.01634 11.2856L8.76593 6.21762L5.55035 3.83853ZM177.823 197.858L182.521 191.508L179.306 189.129L174.608 195.479L177.823 197.858ZM7.87466 6.27682L179.446 191.677L182.381 188.96L10.8105 3.56L7.87466 6.27682ZM8.76593 6.21762C8.53574 6.52875 8.10623 6.52704 7.87466 6.27682L10.8105 3.56C9.36561 1.99869 6.83478 2.10248 5.55035 3.83853L8.76593 6.21762ZM170.248 199.829C172.924 201.025 176.077 200.218 177.823 197.858L174.608 195.479C173.991 196.312 172.861 196.616 171.881 196.177L170.248 199.829ZM1.13722 119.291C1.16088 122.309 2.95477 125.036 5.71079 126.268L7.34336 122.617C6.00826 122.02 5.1484 120.702 5.1371 119.26L1.13722 119.291ZM4.30787 13.4685C4.30169 12.6798 4.55092 11.9146 5.01634 11.2856L1.80076 8.9065C0.817888 10.235 0.295039 11.8466 0.307997 13.4999L4.30787 13.4685ZM4.10205 8.22824L5.32413 113.642L9.32386 113.595L8.10178 8.18187L4.10205 8.22824ZM9.88902 120.586L173.267 193.862L174.904 190.212L11.5259 116.936L9.88902 120.586ZM184.059 186.754L181.889 84.1817L177.89 84.2663L180.059 186.838L184.059 186.754ZM173.923 72.2128L14.8834 1.18844L13.2524 4.84078L172.292 75.8651L173.923 72.2128ZM181.889 84.1817C181.779 78.9968 178.668 74.3321 173.923 72.2128L172.292 75.8651C175.633 77.3572 177.813 80.6379 177.89 84.2663L181.889 84.1817ZM173.267 193.862C178.392 196.16 184.178 192.387 184.059 186.754L180.059 186.838C180.116 189.498 177.383 191.324 174.904 190.212L173.267 193.862ZM5.32413 113.642C5.35896 116.646 7.14698 119.356 9.88902 120.586L11.5259 116.936C10.1976 116.341 9.3405 115.031 9.32386 113.595L5.32413 113.642ZM8.10178 8.18187C8.07115 5.53966 10.7883 3.74035 13.2524 4.84078L14.8834 1.18843C9.78868 -1.0868 4.03717 2.63184 4.10205 8.22824L8.10178 8.18187ZM17.7621 13.242L16.5413 13.9914L18.6338 17.4004L19.8546 16.651L17.7621 13.242ZM12.9128 20.6389L14.3081 89.6571L18.3073 89.5762L16.912 20.5581L12.9128 20.6389ZM15.4979 91.4454L172.254 160.863L173.874 157.205L17.1175 87.7879L15.4979 91.4454ZM175.063 158.993L173.669 90.0051L169.669 90.0859L171.064 159.074L175.063 158.993ZM171.496 82.9682L168.506 78.3812L165.155 80.5655L168.145 85.1526L171.496 82.9682ZM162.646 73.4073L24.8761 12.7669L23.2646 16.428L161.035 77.0683L162.646 73.4073ZM173.669 90.0051C173.618 87.5054 172.865 85.0673 171.496 82.9682L168.145 85.1526C169.107 86.6276 169.634 88.3374 169.669 90.0859L173.669 90.0051ZM16.5413 13.9914C14.2359 15.4065 12.8582 17.934 12.9128 20.6389L16.912 20.5581C16.886 19.269 17.541 18.0712 18.6338 17.4004L16.5413 13.9914ZM168.506 78.3812C167.078 76.1903 165.041 74.4612 162.646 73.4073L161.035 77.0683C162.719 77.8095 164.151 79.0257 165.155 80.5655L168.506 78.3812ZM19.8546 16.651C20.8744 16.025 22.1489 15.9369 23.2646 16.428L24.8761 12.7669C22.5685 11.7512 19.9092 11.924 17.7621 13.242L19.8546 16.651ZM53.6118 59.6398L131.191 93.9295L132.809 90.271L55.2289 55.9812L53.6118 59.6398ZM134.923 120.57L57.343 86.2805L55.7259 89.939L133.306 124.229L134.923 120.57ZM57.343 86.2805C53.8972 84.7575 50.5553 81.7962 47.9962 78.1614C45.4368 74.5261 43.7835 70.3918 43.5228 66.6552L39.5325 66.9336C39.8555 71.5639 41.8535 76.3847 44.7255 80.4641C47.5978 84.5438 51.4674 88.0568 55.7259 89.939L57.343 86.2805ZM145.012 113.555C145.272 117.29 144.099 119.585 142.525 120.681C140.948 121.78 138.37 122.094 134.923 120.57L133.306 124.229C137.562 126.11 141.723 126.115 144.812 123.963C147.904 121.808 149.325 117.908 149.002 113.276L145.012 113.555ZM131.191 93.9295C134.637 95.4526 137.979 98.4138 140.538 102.049C143.098 105.684 144.751 109.818 145.012 113.555L149.002 113.276C148.679 108.646 146.681 103.825 143.809 99.746C140.937 95.6662 137.067 92.1532 132.809 90.271L131.191 93.9295ZM55.2289 55.9812C50.9719 54.0997 46.8114 54.0946 43.7225 56.247C40.6302 58.4018 39.2093 62.3021 39.5325 66.9336L43.5228 66.6552C43.2621 62.9198 44.4355 60.6255 46.0094 59.5288C47.5868 58.4297 50.1645 58.1161 53.6118 59.6398L55.2289 55.9812ZM139.512 112.721C138.835 114.138 137.556 114.957 135.819 115.075C134.027 115.198 131.739 114.551 129.462 112.866L127.083 116.082C129.956 118.207 133.163 119.266 136.092 119.066C139.076 118.862 141.744 117.33 143.121 114.444L139.512 112.721ZM129.462 112.866C127.192 111.187 125.514 108.9 124.636 106.601C123.749 104.276 123.751 102.154 124.471 100.646L120.862 98.9228C119.527 101.717 119.758 105.035 120.899 108.027C122.051 111.045 124.203 113.951 127.083 116.082L129.462 112.866ZM124.471 100.646C125.148 99.2289 126.427 98.4106 128.164 98.292C129.956 98.1695 132.244 98.8166 134.521 100.501L136.9 97.2855C134.027 95.1598 130.82 94.1012 127.891 94.3013C124.907 94.5051 122.239 96.0376 120.862 98.9228L124.471 100.646ZM134.521 100.501C136.791 102.181 138.469 104.468 139.346 106.767C140.234 109.092 140.231 111.213 139.512 112.721L143.121 114.444C144.455 111.65 144.225 108.332 143.084 105.34C141.932 102.323 139.78 99.4164 136.9 97.2855L134.521 100.501ZM66.8855 80.072C66.2089 81.4892 64.9298 82.3075 63.1929 82.4261C61.4009 82.5486 59.1126 81.9015 56.8357 80.217L54.4567 83.4326C57.3298 85.5583 60.5366 86.6169 63.4656 86.4168C66.4497 86.213 69.1178 84.6805 70.4952 81.7953L66.8855 80.072ZM56.8357 80.217C54.5658 78.5375 52.8876 76.2503 52.0103 73.9515C51.123 71.6264 51.1254 69.5049 51.8453 67.997L48.2356 66.2736C46.9014 69.0681 47.1316 72.3862 48.2732 75.3777C49.4248 78.3954 51.5766 81.3017 54.4567 83.4326L56.8357 80.217ZM51.8453 67.997C52.5219 66.5797 53.8009 65.7615 55.5378 65.6428C57.3299 65.5204 59.6182 66.1674 61.895 67.852L64.2741 64.6364C61.401 62.5106 58.1942 61.452 55.2652 61.6521C52.281 61.856 49.613 63.3884 48.2356 66.2736L51.8453 67.997ZM61.895 67.852C64.165 69.5314 65.8431 71.8186 66.7204 74.1174C67.6077 76.4425 67.6054 78.564 66.8855 80.072L70.4952 81.7953C71.8293 79.0008 71.5991 75.6827 70.4575 72.6913C69.3059 69.6736 67.1542 66.7672 64.2741 64.6364L61.895 67.852ZM53.724 130.951C53.6465 131.113 53.5187 131.246 53.1588 131.27C52.7437 131.299 52.0581 131.149 51.2834 130.576L48.9043 133.791C50.2754 134.806 51.8794 135.367 53.4314 135.261C55.0386 135.151 56.5554 134.304 57.3338 132.674L53.724 130.951ZM51.2834 130.576C50.5155 130.008 49.9544 129.235 49.6689 128.487C49.3733 127.713 49.4421 127.178 49.5629 126.925L45.9532 125.201C45.2182 126.741 45.3819 128.473 45.9318 129.913C46.4916 131.38 47.5263 132.772 48.9043 133.791L51.2834 130.576ZM49.5629 126.925C49.6405 126.762 49.7683 126.63 50.1282 126.605C50.5433 126.577 51.2288 126.726 52.0036 127.3L54.3827 124.084C53.0116 123.07 51.4076 122.508 49.8556 122.614C48.2484 122.724 46.7316 123.571 45.9532 125.201L49.5629 126.925ZM52.0036 127.3C52.7715 127.868 53.3326 128.64 53.6181 129.388C53.9136 130.163 53.8448 130.698 53.724 130.951L57.3338 132.674C58.0688 131.134 57.905 129.403 57.3552 127.962C56.7954 126.495 55.7606 125.103 54.3827 124.084L52.0036 127.3ZM71.66 135.436C71.5824 135.598 71.4546 135.731 71.0947 135.755C70.6796 135.784 69.9941 135.634 69.2193 135.061L66.8402 138.277C68.2113 139.291 69.8154 139.852 71.3674 139.746C72.9746 139.636 74.4914 138.789 75.2697 137.159L71.66 135.436ZM69.2193 135.061C68.4514 134.493 67.8903 133.72 67.6048 132.972C67.3093 132.198 67.3781 131.663 67.4989 131.41L63.8892 129.686C63.1541 131.226 63.3179 132.958 63.8677 134.398C64.4276 135.865 65.4623 137.257 66.8402 138.277L69.2193 135.061ZM67.4989 131.41C67.5764 131.247 67.7042 131.115 68.0641 131.09C68.4792 131.062 69.1648 131.211 69.9395 131.785L72.3186 128.569C70.9476 127.555 69.3435 126.994 67.7915 127.1C66.1843 127.209 64.6675 128.056 63.8892 129.686L67.4989 131.41ZM69.9395 131.785C70.7074 132.353 71.2685 133.125 71.554 133.873C71.8496 134.648 71.7808 135.183 71.66 135.436L75.2697 137.159C76.0047 135.619 75.841 133.888 75.2912 132.447C74.7313 130.98 73.6966 129.589 72.3186 128.569L69.9395 131.785ZM120.732 157.686C120.654 157.849 120.527 157.981 120.167 158.006C119.752 158.034 119.066 157.885 118.291 157.311L115.912 160.527C117.283 161.541 118.887 162.103 120.439 161.996C122.046 161.887 123.563 161.04 124.342 159.41L120.732 157.686ZM118.291 157.311C117.523 156.743 116.962 155.971 116.677 155.223C116.381 154.448 116.45 153.913 116.571 153.66L112.961 151.937C112.226 153.477 112.39 155.208 112.94 156.649C113.499 158.116 114.534 159.507 115.912 160.527L118.291 157.311ZM116.571 153.66C116.648 153.498 116.776 153.365 117.136 153.341C117.551 153.312 118.237 153.462 119.011 154.035L121.391 150.819C120.019 149.805 118.415 149.244 116.863 149.35C115.256 149.46 113.739 150.307 112.961 151.937L116.571 153.66ZM119.011 154.035C119.779 154.603 120.34 155.376 120.626 156.124C120.921 156.898 120.853 157.433 120.732 157.686L124.342 159.41C125.077 157.87 124.913 156.138 124.363 154.698C123.803 153.231 122.769 151.839 121.391 150.819L119.011 154.035ZM139.581 168.118C139.504 168.281 139.376 168.413 139.016 168.438C138.601 168.466 137.916 168.317 137.141 167.743L134.762 170.959C136.133 171.973 137.737 172.535 139.289 172.429C140.896 172.319 142.413 171.472 143.191 169.842L139.581 168.118ZM137.141 167.743C136.373 167.175 135.812 166.403 135.526 165.655C135.231 164.88 135.3 164.345 135.42 164.092L131.811 162.369C131.076 163.909 131.239 165.64 131.789 167.081C132.349 168.548 133.384 169.94 134.762 170.959L137.141 167.743ZM135.42 164.092C135.498 163.93 135.626 163.797 135.986 163.773C136.401 163.744 137.086 163.894 137.861 164.467L140.24 161.252C138.869 160.237 137.265 159.676 135.713 159.782C134.106 159.892 132.589 160.739 131.811 162.369L135.42 164.092ZM137.861 164.467C138.629 165.035 139.19 165.808 139.476 166.556C139.771 167.33 139.702 167.865 139.581 168.118L143.191 169.842C143.926 168.302 143.762 166.57 143.213 165.13C142.653 163.663 141.618 162.271 140.24 161.252L137.861 164.467ZM78.2197 60.5447L78.1707 46.1224L74.1708 46.136L74.2197 60.5583L78.2197 60.5447ZM75.3622 47.9585L78.1646 49.1971L79.7817 45.5386L76.9793 44.2999L75.3622 47.9585ZM76.9732 47.3746L76.9947 53.7337L80.9947 53.7201L80.9731 47.3611L76.9732 47.3746ZM78.1862 55.5562L78.3609 55.6334L79.978 51.9749L79.8033 51.8976L78.1862 55.5562ZM80.5035 55.2943L85.2518 51.0435L82.5838 48.0632L77.8355 52.314L80.5035 55.2943ZM83.1093 51.3826L86.4683 52.8673L88.0853 49.2087L84.7263 47.7241L83.1093 51.3826ZM85.96 49.5327L81.0631 53.8163L83.6968 56.8269L88.5936 52.5434L85.96 49.5327ZM80.5856 56.205L85.5896 66.3694L89.1783 64.6027L84.1743 54.4382L80.5856 56.205ZM88.1925 63.6568L84.84 62.175L83.2229 65.8336L86.5755 67.3153L88.1925 63.6568ZM85.8313 63.1321L82.1803 55.5978L78.5807 57.3421L82.2316 64.8764L85.8313 63.1321ZM79.0507 54.9761L77.6784 56.1978L80.338 59.1855L81.7103 57.9638L79.0507 54.9761ZM77.0082 57.6984L77.0221 61.7969L81.0221 61.7834L81.0082 57.6848L77.0082 57.6984ZM79.8306 59.9609L77.0282 58.7222L75.4112 62.3808L78.2136 63.6194L79.8306 59.9609ZM97.8258 58.7808C97.7343 57.7737 97.3464 56.8647 96.7196 56.0876L93.6062 58.599C93.7668 58.798 93.8263 58.9681 93.8422 59.1429L97.8258 58.7808ZM96.7196 56.0876C96.0937 55.3117 95.2853 54.7396 94.3712 54.3356L92.7542 57.9942C93.1862 58.1852 93.4446 58.3986 93.6062 58.599L96.7196 56.0876ZM94.3712 54.3356C93.7912 54.0792 93.1086 53.8604 92.3946 53.8641L92.4152 57.8641C92.3604 57.8644 92.3595 57.8562 92.4273 57.8738C92.4933 57.891 92.6007 57.9263 92.7542 57.9942L94.3712 54.3356ZM92.4244 53.8642C91.7482 53.8576 90.9164 54.0422 90.2581 54.7096L93.1058 57.5186C92.9588 57.6677 92.7915 57.7627 92.642 57.8145C92.5022 57.8628 92.4057 57.8642 92.3854 57.864L92.4244 53.8642ZM90.2322 54.7364C89.6153 55.3856 89.4366 56.1823 89.4389 56.8432L93.4388 56.8296C93.4389 56.8474 93.4372 56.9342 93.3943 57.0615C93.3488 57.1967 93.2652 57.3514 93.1317 57.4919L90.2322 54.7364ZM89.4398 56.7755C89.4224 57.3452 89.5381 57.8942 89.7674 58.4018L93.4126 56.7547C93.417 56.7645 93.4247 56.7846 93.4306 56.8134C93.4365 56.8424 93.4387 56.8714 93.4379 56.8973L89.4398 56.7755ZM89.7773 58.4232C89.9757 58.849 90.2342 59.2353 90.5339 59.5843L93.5685 56.9784C93.4789 56.874 93.43 56.7916 93.4027 56.7333L89.7773 58.4232ZM90.5474 59.5999C90.8151 59.9052 91.1124 60.1928 91.4333 60.4645L94.0178 57.4115C93.8288 57.2515 93.6765 57.1014 93.555 56.9628L90.5474 59.5999ZM91.4498 60.4783C91.7542 60.7304 92.0751 60.9714 92.4116 61.2019L94.6722 57.902C94.43 57.7361 94.2067 57.5678 94.0012 57.3977L91.4498 60.4783ZM92.3932 61.1892L93.5851 62.0254L95.8824 58.7509L94.6905 57.9147L92.3932 61.1892ZM93.6035 62.0381C94.1065 62.3827 94.5607 62.7446 94.9688 63.1225L97.6869 60.1879C97.1268 59.6692 96.5183 59.1863 95.8641 58.7382L93.6035 62.0381ZM94.9688 63.1225C95.3599 63.4848 95.6868 63.8564 95.9565 64.2355L99.2162 61.9172C98.7759 61.2982 98.2638 60.7223 97.6869 60.1879L94.9688 63.1225ZM95.9565 64.2355C96.2096 64.5913 96.397 64.9525 96.5279 65.3208L100.297 63.981C100.036 63.2481 99.673 62.5596 99.2162 61.9172L95.9565 64.2355ZM96.5319 65.3318C96.6533 65.6672 96.7181 66.0213 96.7221 66.405L100.722 66.3629C100.713 65.5409 100.572 64.7397 100.293 63.97L96.5319 65.3318ZM96.722 66.3809C96.7211 66.9799 96.5811 67.1135 96.6023 67.0893L99.6147 69.7208C100.451 68.7632 100.72 67.5494 100.722 66.3869L96.722 66.3809ZM96.5993 67.0927C96.6003 67.0914 96.6048 67.0869 96.611 67.0825C96.6171 67.0781 96.6173 67.0793 96.6064 67.0838C96.5837 67.0931 96.4964 67.1232 96.3079 67.1275L96.3984 71.1264C97.5786 71.0997 98.7569 70.7074 99.6177 69.7174L96.5993 67.0927ZM96.315 67.1273C95.9593 67.1341 95.3432 67.0213 94.3999 66.6043L92.7829 70.2629C93.9969 70.7995 95.222 71.1489 96.3913 71.1266L96.315 67.1273ZM94.3999 66.6043C93.5013 66.2071 92.7486 65.7252 92.1233 65.1687L89.4639 68.1566C90.4289 69.0154 91.5414 69.7142 92.7829 70.2629L94.3999 66.6043ZM92.1254 65.1705C91.5127 64.6236 91.054 64.0232 90.7271 63.3675L87.1475 65.1525C87.714 66.2887 88.493 67.29 89.4619 68.1548L92.1254 65.1705ZM90.7316 63.3766C90.4231 62.7501 90.2538 62.0639 90.2353 61.2934L86.2365 61.3892C86.2682 62.7128 86.5664 63.9725 87.1429 65.1434L90.7316 63.3766ZM87.4274 63.1706L90.1391 64.3692L91.7562 60.7106L89.0444 59.512L87.4274 63.1706ZM88.9518 62.6678C89.0011 63.4377 89.204 64.1762 89.5686 64.8605L93.0987 62.9794C93.0124 62.8174 92.9579 62.6359 92.9436 62.412L88.9518 62.6678ZM89.5787 64.8792C89.9275 65.5173 90.3849 66.0762 90.9329 66.5549L93.5644 63.5423C93.3519 63.3567 93.1993 63.1632 93.0886 62.9606L89.5787 64.8792ZM90.9477 66.5676C91.4867 67.0293 92.088 67.4033 92.7418 67.6923L94.3589 64.0337C94.0462 63.8955 93.7797 63.7266 93.5496 63.5296L90.9477 66.5676ZM92.7418 67.6923C93.3541 67.9629 94.0438 68.1752 94.7614 68.1839L94.8101 64.1842C94.8278 64.1844 94.8005 64.1863 94.7182 64.1649C94.6366 64.1437 94.518 64.1041 94.3589 64.0337L92.7418 67.6923ZM94.751 68.1837C95.4475 68.1959 96.2905 68.0221 96.9759 67.3774L94.2353 64.4638C94.3724 64.3348 94.5211 64.2581 94.6438 64.2187C94.7579 64.182 94.8266 64.1845 94.8206 64.1844L94.751 68.1837ZM96.9759 67.3774C97.6875 66.7081 97.8961 65.8413 97.8937 65.12L93.8937 65.1336C93.8937 65.1254 93.8941 65.0369 93.9425 64.9034C93.9947 64.7597 94.0898 64.6006 94.2353 64.4638L96.9759 67.3774ZM97.8937 65.12C97.8913 64.4125 97.6912 63.7534 97.3447 63.1706L93.9064 65.2146C93.914 65.2274 93.9094 65.2227 93.9034 65.2021C93.8973 65.1806 93.8938 65.156 93.8937 65.1336L97.8937 65.12ZM97.3528 63.1843C97.0482 62.6625 96.6431 62.2063 96.1986 61.8058L93.5213 64.7776C93.7509 64.9845 93.8563 65.1288 93.8983 65.2009L97.3528 63.1843ZM96.2035 61.8102C95.7942 61.439 95.3175 61.0667 94.7863 60.6929L92.4843 63.9642C92.9204 64.271 93.2602 64.5408 93.5164 64.7732L96.2035 61.8102ZM94.7981 60.7013L93.3535 59.669L91.0279 62.9235L92.4725 63.9558L94.7981 60.7013ZM93.3442 59.6624C92.3714 58.9756 91.6631 58.2765 91.17 57.5816L87.9078 59.8963C88.7134 61.0318 89.773 62.0375 91.0372 62.9301L93.3442 59.6624ZM91.17 57.5816C90.747 56.9853 90.5655 56.397 90.5659 55.7718L86.566 55.7692C86.565 57.2716 87.0322 58.6623 87.9078 59.8963L91.17 57.5816ZM90.5659 55.7539C90.5612 55.1895 90.6982 55.0897 90.6639 55.1266L87.7339 52.4035C86.8411 53.3641 86.5562 54.6012 86.566 55.7871L90.5659 55.7539ZM90.6543 55.1369C90.6591 55.1317 90.7197 55.0416 91.067 55.0276L90.906 51.0309C89.737 51.078 88.6059 51.4784 87.7436 52.3932L90.6543 55.1369ZM91.067 55.0276C91.4241 55.0133 91.9748 55.1043 92.7649 55.4535L94.382 51.7949C93.2392 51.2898 92.0651 50.9842 90.906 51.0309L91.067 55.0276ZM92.7649 55.4535C93.5559 55.8031 94.2223 56.2439 94.7817 56.7695L97.5207 53.8545C96.6106 52.9993 95.5585 52.315 94.382 51.7949L92.7649 55.4535ZM94.7839 56.7717C95.3634 57.3145 95.7883 57.8871 96.085 58.4873L99.6709 56.7149C99.1434 55.6477 98.4171 54.6942 97.5185 53.8524L94.7839 56.7717ZM96.085 58.4873C96.3764 59.0768 96.5102 59.6375 96.5202 60.1857L100.52 60.1123C100.498 58.9307 100.204 57.7929 99.6709 56.7149L96.085 58.4873ZM99.3284 58.3197L96.6425 57.1326L95.0255 60.7911L97.7114 61.9783L99.3284 58.3197ZM102.621 71.3299L102.572 56.9077L98.5721 56.9212L98.621 71.3435L102.621 71.3299ZM99.7635 58.7437L108.695 62.6914L110.312 59.0328L101.381 55.0852L99.7635 58.7437ZM107.503 60.8689L107.512 63.3829L111.512 63.3693L111.503 60.8553L107.503 60.8689ZM110.321 61.5468L104.192 58.8378L102.574 62.4964L108.703 65.2054L110.321 61.5468ZM101.383 60.6739L101.395 64.1105L105.395 64.0969L105.383 60.6603L101.383 60.6739ZM102.586 65.933L108.256 68.4389L109.873 64.7803L104.203 62.2744L102.586 65.933ZM107.064 66.6164L107.073 69.1304L111.073 69.1168L111.064 66.6028L107.064 66.6164ZM109.881 67.2944L104.212 64.7885L102.595 68.447L108.264 70.9529L109.881 67.2944ZM101.403 66.6245L101.415 70.0681L105.415 70.0546L105.403 66.611L101.403 66.6245ZM102.606 71.8906L108.761 74.6111L110.378 70.9525L104.223 68.2321L102.606 71.8906ZM107.57 72.7886L107.578 75.3026L111.578 75.289L111.57 72.775L107.57 72.7886ZM110.387 73.4665L101.429 69.5075L99.8124 73.166L108.77 77.1251L110.387 73.4665ZM113.235 64.131L113.227 61.6169L109.227 61.6305L109.235 64.1446L113.235 64.131ZM110.418 63.453L121.304 68.2646L122.921 64.606L112.035 59.7944L110.418 63.453ZM120.113 66.4421L120.121 68.9561L124.121 68.9425L124.113 66.4285L120.113 66.4421ZM122.93 67.12L118.872 65.3264L117.255 68.985L121.313 70.7786L122.93 67.12ZM116.063 67.1625L116.104 79.0708L120.104 79.0572L120.063 67.1489L116.063 67.1625ZM118.912 77.2347L116.142 76.0103L114.525 79.6689L117.295 80.8933L118.912 77.2347ZM117.334 77.8328L117.293 65.9246L113.293 65.9382L113.334 77.8464L117.334 77.8328ZM116.102 64.1021L112.044 62.3085L110.427 65.9671L114.485 67.7607L116.102 64.1021Z" fill="#640000" mask="url(#path-1-outside-1_64_178)"/>
</svg>
